<mxfile host="app.diagrams.net" modified="2023-08-12T03:18:03.252Z" agent="Mozilla/5.0 (Macintosh; Intel Mac OS X 10_15_7) AppleWebKit/537.36 (KHTML, like Gecko) Chrome/115.0.0.0 Safari/537.36" version="21.5.0" etag="HyLkn8RstMoXny7vxXWn" type="github">
  <diagram name="第 1 页" id="8n0bDdkxqz_kAfFlxZaR">
    <mxGraphModel>
      <root>
        <mxCell id="0" />
        <mxCell id="1" parent="0" />
      </root>
    </mxGraphModel>
  </diagram>
</mxfile>
